<svg viewBox="0 0 1792 2309.2599" xmlns="http://www.w3.org/2000/svg"><path d="M768 1792q50 5 128 5t128-5q-2 42 0 139 1 15 0 31t1 31.5 6 27.5 15.5 19.5 30.5 7.5h94q35 0 55.5-12t42.5-43l236-339q103-96 168.5-250t65.5-270q0-41-4.5-79t-17.5-79.5-18-58-25-63-20-47.5q13-41 47-138.5t61-176.5 30-98q-5-5-24.5-25.5t-26-26-27-22-34-22T1641 282t-51.5-15-62.5-7.5-80-3.5q-64 0-108.5 19t-63.5 42.5-43.5 58.5-44.5 53q-140-46-291-46t-291 46q-20-18-44.5-53T517 317.5 453.5 275 345 256q-43 0-80 3.5t-62.5 7.5-51.5 15-39.5 16.5-34 22-27 22-26 26T0 394q3 19 30 98t61 176.5T138 807q0 1-20 47.5t-25 63-18 58-17.5 79.5-4.5 79q0 116 65.5 270T287 1654l236 339q22 31 42.5 43t55.5 12h94q19 0 30.5-7.5T761 2021t6-27.5 1-31.5 0-31q2-97 0-139zm-203-467q0-62 28.5-111.5t75-80.5 106-47.5T896 1069t121.5 16.5 106 47.5 75 80.5T1227 1325t-28.5 111.5-75 80.5-106 47.5T896 1581t-121.5-16.5-106-47.5-75-80.5T565 1325zm469-104q-29 0-49 26.5t-20 63.5 20 63.5 49 26.5 49-26.5 20-63.5-20-63.5-49-26.5zm170-456q29 0 50 15t21 36v118q0 23-23 37t-48 14q-29 0-50-15t-21-36V816q0-24 22.5-37.5T1204 765zm-446 456q-29 0-49 26.5t-20 63.5 20 63.5 49 26.5 49-26.5 20-63.5-20-63.5-49-26.5zM588 765q26 0 48.5 13.5T659 816v118q0 21-21 36t-50 15q-25 0-48-14t-23-37V816q0-21 21-36t50-15z"/></svg>